<svg width="72" height="61" viewBox="0 0 72 61" fill="none" xmlns="http://www.w3.org/2000/svg">
<g filter="url(#filter0_d_1_217)">
<path d="M44.2844 10H16.8538C13.0685 10 10 12.2858 10 15.1054V35.5386C10 38.3583 13.0685 40.6441 16.8538 40.6441H44.2844C48.0696 40.6441 51.1382 38.3583 51.1382 35.5386V15.1054C51.1382 12.2858 48.0696 10 44.2844 10Z" fill="#F2C94C"/>
</g>
<path d="M40 22.7508C40 19.0006 36 16.0004 31 16.0004C26 16.0004 22 19.0006 22 22.7508C22 25.0759 23.6 27.1761 26 28.3762V30.2513C26 31.2263 26.8 32.0514 28 32.3514V32.5014C28 33.7765 29.3 34.7516 31 34.7516C32.7 34.7516 34 33.7765 34 32.5014V32.3514C35.2 32.0514 36 31.2263 36 30.2513V28.3762C38.4 27.1761 40 25.0759 40 22.7508ZM24 22.7508C24 19.8256 27.1 17.5005 31 17.5005C34.9 17.5005 38 19.8256 38 22.7508C38 25.376 35.4 27.5511 32 27.9261V26.051L33.7 24.7759C34.1 24.4759 34.1 24.0259 33.7 23.7259C33.3 23.4258 32.7 23.4258 32.3 23.7259L31 24.7009L29.7 23.7259C29.3 23.4258 28.7 23.4258 28.3 23.7259C27.9 24.0259 27.9 24.4759 28.3 24.7759L30 26.051V27.9261C26.6 27.5511 24 25.376 24 22.7508ZM31 33.2515C30.4 33.2515 30 32.9515 30 32.5014H32C32 32.9515 31.6 33.2515 31 33.2515ZM34 30.2513C34 30.7013 33.6 31.0013 33 31.0013H29C28.4 31.0013 28 30.7013 28 30.2513V29.1262C28.9 29.3512 29.9 29.5012 31 29.5012C32.1 29.5012 33.1 29.3512 34 29.1262V30.2513Z" fill="white"/>
<defs>
<filter id="filter0_d_1_217" x="0" y="0" width="71.1382" height="60.644" filterUnits="userSpaceOnUse" color-interpolation-filters="sRGB">
<feFlood flood-opacity="0" result="BackgroundImageFix"/>
<feColorMatrix in="SourceAlpha" type="matrix" values="0 0 0 0 0 0 0 0 0 0 0 0 0 0 0 0 0 0 127 0" result="hardAlpha"/>
<feOffset dx="5" dy="5"/>
<feGaussianBlur stdDeviation="7.5"/>
<feColorMatrix type="matrix" values="0 0 0 0 0 0 0 0 0 0 0 0 0 0 0 0 0 0 0.15 0"/>
<feBlend mode="normal" in2="BackgroundImageFix" result="effect1_dropShadow_1_217"/>
<feBlend mode="normal" in="SourceGraphic" in2="effect1_dropShadow_1_217" result="shape"/>
</filter>
</defs>
</svg>
