<svg width="72" height="61" viewBox="0 0 72 61" fill="none" xmlns="http://www.w3.org/2000/svg">
<g filter="url(#filter0_d_1_212)">
<path d="M44.2844 10H16.8538C13.0686 10 10 12.2858 10 15.1054V35.5386C10 38.3583 13.0686 40.6441 16.8538 40.6441H44.2844C48.0696 40.6441 51.1382 38.3583 51.1382 35.5386V15.1054C51.1382 12.2858 48.0696 10 44.2844 10Z" fill="#56CCF2"/>
</g>
<g clip-path="url(#clip0_1_212)">
<path d="M40.8618 24.2509H36.6918L39.9318 21.8208L38.5218 20.7557L33.8618 24.2509H31.8618V22.7508L36.5218 19.2556L35.1018 18.198L31.8618 20.6282V17.5005H29.8618V20.6282L26.6218 18.198L25.2018 19.2556L29.8618 22.7508V24.2509H27.8618L23.2018 20.7557L21.7918 21.8208L25.0318 24.2509H20.8618V25.751H25.0318L21.7918 28.1812L23.2018 29.2463L27.8618 25.751H29.8618V27.2511L25.2018 30.7463L26.6218 31.8039L29.8618 29.3738V32.5015H31.8618V29.3738L35.1018 31.8039L36.5218 30.7463L31.8618 27.2511V25.751H33.8618L38.5218 29.2463L39.9318 28.1812L36.6918 25.751H40.8618V24.2509Z" fill="white"/>
</g>
<defs>
<filter id="filter0_d_1_212" x="0" y="0" width="71.1382" height="60.644" filterUnits="userSpaceOnUse" color-interpolation-filters="sRGB">
<feFlood flood-opacity="0" result="BackgroundImageFix"/>
<feColorMatrix in="SourceAlpha" type="matrix" values="0 0 0 0 0 0 0 0 0 0 0 0 0 0 0 0 0 0 127 0" result="hardAlpha"/>
<feOffset dx="5" dy="5"/>
<feGaussianBlur stdDeviation="7.5"/>
<feColorMatrix type="matrix" values="0 0 0 0 0 0 0 0 0 0 0 0 0 0 0 0 0 0 0.15 0"/>
<feBlend mode="normal" in2="BackgroundImageFix" result="effect1_dropShadow_1_212"/>
<feBlend mode="normal" in="SourceGraphic" in2="effect1_dropShadow_1_212" result="shape"/>
</filter>
<clipPath id="clip0_1_212">
<rect width="24" height="18.0012" fill="white" transform="translate(18.8618 16.0004)"/>
</clipPath>
</defs>
</svg>
