<svg width="688" height="579" viewBox="0 0 688 579" fill="none" xmlns="http://www.w3.org/2000/svg">
<path opacity="0.4" d="M624.23 31.1001C479.455 -37.7926 415.592 150.599 315.762 181.596C216.017 226.943 119.839 173.866 60.4516 219.364C-33.6831 291.484 7.63368 417.653 67.897 470.74C154.318 546.87 307.895 519.47 466.635 437.152C665.517 334.018 751.174 91.5073 624.23 31.1001Z" fill="#98C3E8"/>
<path opacity="0.2" d="M143.123 106.19C148.123 118.69 133.123 138.19 111.623 144.69C93.1226 150.283 75.1226 149.69 70.1226 136.69C65.6995 125.19 79.6226 112.69 95.6226 106.19C111.623 99.6899 138.123 93.6899 143.123 106.19Z" fill="#98C3E8"/>
<path opacity="0.2" d="M306.623 80.6899C302.732 70.7503 316.438 47.5557 333.425 42.4884C348.041 38.1282 361.734 27.8536 365.623 38.1899C369.063 47.3336 358.531 68.0145 345.883 73.1049C333.235 78.1953 310.514 90.6295 306.623 80.6899Z" fill="#98C3E8"/>
<path opacity="0.2" d="M295.415 572.905C291.524 562.966 303.438 547.556 320.425 542.488C335.041 538.128 349.237 538.674 353.126 549.011C356.566 558.154 345.531 568.015 332.883 573.105C320.235 578.195 299.306 582.845 295.415 572.905Z" fill="#98C3E8"/>
<path opacity="0.2" d="M471.195 522.24C463.101 503.21 488.901 460.925 524.195 451.24C554.565 442.906 603.604 459.95 611.695 479.739C618.852 497.245 571.975 494.35 545.696 504.083C519.417 513.816 479.29 541.269 471.195 522.24Z" fill="#98C3E8"/>
<mask id="mask0_3_10" style="mask-type:alpha" maskUnits="userSpaceOnUse" x="20" y="19" width="647" height="491">
<path d="M606.584 32.6343C466.012 -29.4411 409.665 153.169 314.764 185.714C220.316 232.029 126.741 183.774 70.9866 229.106C-17.3899 300.962 25.4834 420.907 84.6288 470.176C169.446 540.829 315.965 510.234 466.012 426.783C654.003 322.229 729.842 87.0639 606.584 32.6343Z" fill="#98C3E8"/>
</mask>
<g mask="url(#mask0_3_10)">
<rect x="-85.4604" y="-60.9083" width="805.162" height="681.485" fill="url(#paint0_linear_3_10)"/>
<path d="M127.623 157.69C201.45 194.919 193.623 249.69 97.6226 349.69C20.3936 430.137 42.8438 502.368 -16.6809 555.583L491.278 588.395C473.189 507.416 23.3083 541.487 322.623 373.69C388.623 336.69 636.829 248.284 718.439 257.749L740.524 27.4323C700.771 44.0488 561.041 220.262 564.623 138.69C573.623 -66.3101 431.963 17.1259 395.365 -14.845" stroke="white" stroke-opacity="0.2" stroke-width="15"/>
<path d="M206.064 99.3668C226.256 204.534 281.153 397.327 339.206 327.159C411.771 239.45 469.193 125.869 523.459 200.959C566.872 261.03 630.73 379.533 657.232 431.275" stroke="white" stroke-opacity="0.2" stroke-width="15"/>
<path d="M276.623 419.69C281.041 419.69 284.623 423.272 284.623 427.69C284.623 432.108 281.041 435.69 276.623 435.69C272.204 435.69 268.623 432.108 268.623 427.69C268.623 423.272 272.204 419.69 276.623 419.69ZM102.623 317.69C107.041 317.69 110.623 321.272 110.623 325.69C110.623 330.108 107.041 333.69 102.623 333.69C98.2043 333.69 94.6226 330.108 94.6226 325.69C94.6226 321.272 98.2043 317.69 102.623 317.69ZM550.623 301.69C555.041 301.69 558.623 305.272 558.623 309.69C558.623 314.108 555.041 317.69 550.623 317.69C546.204 317.69 542.623 314.108 542.623 309.69C542.623 305.272 546.204 301.69 550.623 301.69ZM425.623 152.69C430.041 152.69 433.623 156.272 433.623 160.69C433.623 165.108 430.041 168.69 425.623 168.69C421.204 168.69 417.623 165.108 417.623 160.69C417.623 156.272 421.204 152.69 425.623 152.69Z" fill="white" fill-opacity="0.6"/>
<circle cx="72.6226" cy="412.69" r="18" stroke="white" stroke-opacity="0.4" stroke-width="8"/>
<circle cx="652.623" cy="135.69" r="18" stroke="white" stroke-opacity="0.4" stroke-width="8"/>
<circle cx="402.623" cy="368.69" r="18" stroke="white" stroke-opacity="0.4" stroke-width="8"/>
</g>
<defs>
<linearGradient id="paint0_linear_3_10" x1="375.238" y1="-106.629" x2="337.415" y2="564.197" gradientUnits="userSpaceOnUse">
<stop stop-color="#D1ECFF"/>
<stop offset="1" stop-color="#1070B1"/>
</linearGradient>
</defs>
</svg>
