<svg width="137" height="231" viewBox="0 0 137 231" fill="none" xmlns="http://www.w3.org/2000/svg">
<path d="M116.783 229.072L115.283 224.072L123.283 222.572C127.117 224.572 134.483 228.972 133.283 230.572C132.883 231.372 122.117 229.906 116.783 229.072Z" fill="#D06262"/>
<path d="M76.2832 182.072L80.7832 189.572C80.4499 194.739 79.3832 204.872 77.7832 204.072C76.1832 203.272 71.1165 190.406 68.7832 184.072L76.2832 182.072Z" fill="#D06262"/>
<path d="M50.1114 137.066C44.782 131.53 39.9394 121.097 38.1842 116.572C43.312 114.092 54.7074 108.424 59.2674 105.595C63.8274 102.765 72.4759 96.346 76.2301 93.4901C78.4201 95.4645 84.793 100.335 92.764 104.02C113.235 113.686 124.928 126.167 128.968 137.344C132.201 146.286 118.958 159.521 111.434 165.067C107.075 157.659 104.452 154.662 99.2835 147.606L101.04 139.411L90.716 136.343C92.2421 138.379 97.2438 145.082 105.041 155.612C119.111 173.198 123.983 203.244 124.661 216.07C122.036 216.646 115.573 217.709 110.72 217.352C110.147 211.122 102.342 197.283 94.8893 185.032C93.3729 186.846 91.2715 189.014 90.0476 189.127C83.853 187.286 81.9341 179.161 81.749 175.329L86.4307 171.407C85.7891 170.382 85.1886 169.421 84.6389 168.535C76.9756 156.185 56.7731 143.984 50.1114 137.066Z" fill="#1F3F68"/>
<path d="M78.1302 92.3112C63.596 103.523 33.5111 123.63 29.4453 114.363C24.363 102.78 25.3588 102.688 22.5488 99.4319C19.7387 96.1756 19.0518 88.7071 17.7812 85.8113C17.1426 84.356 11.9942 77.9892 7.87856 70.1525C7.87856 70.1525 7.7549 69.9256 7.54574 69.511C4.62379 63.8091 2.31609 57.3926 2.69573 51.5489C2.98614 42.9864 9.49945 37.4636 9.49945 37.4636C13.3813 33.3252 17.0221 32.6303 18.2832 32.7417L18.3065 32.7576C21.3414 34.8214 25.8284 37.8728 27.4176 37.7266C29.0109 37.58 31.2832 34.5723 32.7832 33.0723C40.3891 33.8791 42.7118 31.9309 48.6568 32.7417C55.9884 33.7417 75.7832 44.0723 91.2834 16.5723C92.8229 16.9328 96.2937 18.3013 98.7832 18.0723C90.2833 43.0723 82.7832 50.8534 75.7832 53.3036C70.4108 55.1841 66.1783 55.7082 62.8348 55.6739C62.2214 58.9356 61.4059 64.2966 60.0467 69.7636C62.841 74.8788 65.7948 79.5777 68.1148 81.6838C74.1412 87.1548 80.9463 90.1747 78.1302 92.3112Z" fill="white"/>
<path d="M77.8447 121.962L91.2598 136.796L101.04 139.411L100.457 143.983C102.702 141.099 105.58 134.173 99.1287 129.544C92.6776 124.916 82.2515 122.561 77.8447 121.962Z" fill="black" fill-opacity="0.2"/>
<path d="M86.4075 171.385L94.7062 185.183L93.3499 186.814C92.1251 184.416 88.9087 182.202 86.1902 179.941C84.0155 178.133 83.5595 174.995 83.6033 173.652L86.4075 171.385Z" fill="black" fill-opacity="0.2"/>
<path d="M47.85 96.1005C33.6524 94.5946 16.3865 79.7469 9.52831 72.5113C25.387 86.6181 43.8151 90.4463 49.6525 88.4031C54.3224 86.7685 57.9025 74.5991 59.7833 69.5724L63.582 76.0754C64.2536 83.378 62.0476 97.6065 47.85 96.1005Z" fill="black" fill-opacity="0.2"/>
<path d="M42.7501 67.9493C39.6023 68.5247 31.4566 61.6238 27.8014 58.2778C41.2564 68.0867 41.2832 63.0723 58.2832 51.0723C57.545 52.1444 50.2832 66.5723 42.7501 67.9493Z" fill="black" fill-opacity="0.2"/>
<path d="M63.2832 53.5723C61.5704 53.2284 60.0792 52.6485 58.2832 51.0723L59.7832 47.5723C59.6165 46.7389 59.3832 44.8723 59.7832 44.0723C60.1832 43.2723 61.7832 42.4056 62.2832 42.0723L61.7832 44.5723L64.2832 41.5723L68.2832 45.0723L67.7832 48.5723L64.7832 50.0723L63.2832 53.5723Z" fill="#F2994A"/>
<path d="M99.7832 13.0723L98.7832 18.0723C97.1832 18.4723 92.9499 17.2389 91.2832 16.5723C91.7832 15.0723 93.3832 11.0723 93.7832 9.07227C94.1832 7.07227 97.9499 4.9056 99.7832 4.07227H101.783L99.7832 7.57227V13.0723Z" fill="#F2994A"/>
<path d="M15.7832 22.5723C16.5832 24.1723 18.7832 27.5723 19.7832 29.0723C20.4499 27.739 21.3832 24.7723 19.7832 23.5723C18.1832 22.3723 16.7832 20.4057 16.2832 19.5723C16.7832 19.239 18.0832 18.5723 19.2832 18.5723C18.4832 12.5723 22.6165 10.4057 24.7832 10.0723L33.2832 9.57233L33.7832 12.0723C36.9499 9.07232 42.6832 2.57232 40.2832 0.572321C37.2832 -1.92768 28.2832 4.57232 22.2832 4.57232C16.2832 4.57232 13.7832 7.57232 12.2832 10.5723C10.7832 13.5723 14.7832 20.5723 15.7832 22.5723Z" fill="#316099"/>
<path d="M27.2832 38.0723C25.6832 38.0723 21.1165 34.9056 18.2832 33.0723C19.6165 32.4056 20.2832 29.8723 20.2832 29.0723C20.2832 28.0723 21.2832 24.0723 20.2832 23.5723C19.2832 23.0723 16.2832 21.0723 16.2832 20.0723C16.2832 19.2723 18.2832 19.0723 19.2832 19.0723C18.9499 17.4056 18.8832 13.5723 21.2832 11.5723C23.6832 9.57229 30.2832 9.40563 33.2832 9.57229C33.4499 10.239 34.0832 13.0723 35.2832 19.0723C36.4832 25.0723 33.7832 27.9056 32.2832 28.5723L32.7832 33.0723C31.6165 34.5723 28.8832 38.0723 27.2832 38.0723Z" fill="#F2994A"/>
<path d="M123.283 222.572L122.783 216.572C119.252 217.518 117.155 217.686 113.283 217.572L115.283 224.072L123.283 222.572Z" fill="#98C3E8"/>
<path d="M80.7832 189.572L86.7832 187.572C84.105 184.495 83.2038 182.74 82.2832 179.572L76.2832 182.072L80.7832 189.572Z" fill="#98C3E8"/>
</svg>
